# xmcd
#
# Track frame offsets: 
#        150
#        20536
#        33608
#        51171
#        69801
#        86447
#        97562
#        111424
#        125973
#        143706
#        161801
#        178689
#        195409
#        213665
#        226871
#        261704
#
# Disc length: 3493 seconds
#
# Revision: 3
# Processed by: cddbd v1.5.2PL0 Copyright (c) Steve Scherf et al.
# Submitted via: ExactAudioCopy v0.99pb5
#
DISCID=e30da310
DTITLE=Bonnie 'Prince' Billy - Sings Greatest Palace Music
DYEAR=2004
DGENRE=Americana
TTITLE0=New Partner
TTITLE1=Ohio River Boat Song
TTITLE2=Gulf Shores
TTITLE3=You Will Miss Me When I Burn
TTITLE4=The Brute Choir
TTITLE5=I Send My Love To You
TTITLE6=More Brother Rides
TTITLE7=Agnes, Queen of Sorrow
TTITLE8=Viva Ultra
TTITLE9=Pushkin
TTITLE10=Horses
TTITLE11=Riding
TTITLE12=West Palm Beach
TTITLE13=No More Workhorse Blues
TTITLE14=I Am a Cinematographer
TTITLE15=[untitled]
EXTD=
EXTT0=
EXTT1=
EXTT2=
EXTT3=
EXTT4=
EXTT5=
EXTT6=
EXTT7=
EXTT8=
EXTT9=
EXTT10=
EXTT11=
EXTT12=
EXTT13=
EXTT14=
EXTT15=
PLAYORDER=
